<svg width="90" height="90" viewBox="0 0 90 90" fill="none" xmlns="http://www.w3.org/2000/svg">
<rect width="90" height="90" rx="15" fill="#C84B2F"/>
<path d="M17.8182 42.3409C16.4091 42.3409 15.1515 41.9811 14.0455 41.2614C12.947 40.5341 12.0833 39.5 11.4545 38.1591C10.8333 36.8106 10.5227 35.1932 10.5227 33.3068C10.5227 31.4205 10.8371 29.8068 11.4659 28.4659C12.1023 27.125 12.9735 26.0985 14.0795 25.3864C15.1856 24.6742 16.4394 24.3182 17.8409 24.3182C18.9242 24.3182 19.7955 24.5 20.4545 24.8636C21.1212 25.2197 21.6364 25.6364 22 26.1136C22.3712 26.5909 22.6591 27.0114 22.8636 27.375H23.0682V18.7273H26.4659V42H23.1477V39.2841H22.8636C22.6591 39.6553 22.3636 40.0795 21.9773 40.5568C21.5985 41.0341 21.0758 41.4508 20.4091 41.8068C19.7424 42.1629 18.8788 42.3409 17.8182 42.3409ZM18.5682 39.4432C19.5455 39.4432 20.3712 39.1856 21.0455 38.6705C21.7273 38.1477 22.2424 37.4242 22.5909 36.5C22.947 35.5758 23.125 34.5 23.125 33.2727C23.125 32.0606 22.9508 31 22.6023 30.0909C22.2538 29.1818 21.7424 28.4735 21.0682 27.9659C20.3939 27.4583 19.5606 27.2045 18.5682 27.2045C17.5455 27.2045 16.6932 27.4697 16.0114 28C15.3295 28.5303 14.8144 29.2538 14.4659 30.1705C14.125 31.0871 13.9545 32.1212 13.9545 33.2727C13.9545 34.4394 14.1288 35.4886 14.4773 36.4205C14.8258 37.3523 15.3409 38.0909 16.0227 38.6364C16.7121 39.1742 17.5606 39.4432 18.5682 39.4432Z" fill="white"/>
<path d="M51.529 21.6453C51.4821 21.2352 51.3064 20.8427 50.99 20.5264L46.6549 16.1854C45.7411 15.2715 44.2589 15.2715 43.3392 16.1854L39.0041 20.5264C38.6936 20.8368 38.512 21.2352 38.4651 21.6453C38.4066 22.1901 38.5823 22.7583 39.0041 23.1801L43.6731 27.8492C43.9836 28.1596 44.382 28.3412 44.792 28.3881C44.9326 28.4057 45.0674 28.4057 45.208 28.3881C45.618 28.3412 46.0105 28.1655 46.3269 27.8492L50.99 23.1743C51.4118 22.7525 51.5876 22.1901 51.529 21.6394V21.6453ZM42.8822 30.292C42.8354 29.882 42.6596 29.4895 42.3433 29.1731L37.6743 24.5041C37.2525 24.0823 36.6901 23.9066 36.1394 23.9651C35.7294 24.012 35.3368 24.1878 35.0205 24.5041L30.6854 28.8392C29.7715 29.7531 29.7715 31.2352 30.6854 32.1549L35.0264 36.4959C35.3368 36.8064 35.7352 36.988 36.1453 37.0349C36.6901 37.0934 37.2583 36.9177 37.6801 36.4959L42.3492 31.8269C42.6596 31.5164 42.8412 31.118 42.8881 30.708C42.9057 30.5674 42.9057 30.4326 42.8881 30.292H42.8822ZM44.7862 32.6119C44.3761 32.6588 43.9836 32.8345 43.6673 33.1508L39.0041 37.8199C38.5823 38.2417 38.4066 38.804 38.4651 39.3547C38.512 39.7648 38.6878 40.1573 39.0041 40.4736L43.3451 44.8146C44.2589 45.7285 45.7411 45.7285 46.6608 44.8146L51.0018 40.4736C51.3122 40.1632 51.4939 39.7648 51.5407 39.3547C51.5993 38.8099 51.4236 38.2417 51.0018 37.8199L46.3327 33.1508C46.0223 32.8404 45.6239 32.6588 45.2138 32.6119C45.0732 32.5943 44.9385 32.5943 44.7979 32.6119H44.7862ZM47.106 30.708C47.1529 31.118 47.3286 31.5105 47.645 31.8269L52.3199 36.49C52.7417 36.9118 53.304 37.0876 53.8547 37.029C54.2648 36.9821 54.6573 36.8064 54.9736 36.49L59.3146 32.1491C60.2285 31.2352 60.2285 29.7531 59.3146 28.8333L54.9736 24.4924C54.6632 24.1819 54.2648 24.0003 53.8547 23.9534C53.3099 23.8948 52.7417 24.0706 52.3199 24.4924L47.6508 29.1614C47.3404 29.4719 47.1588 29.8702 47.1119 30.2803C47.0943 30.4209 47.0943 30.5557 47.1119 30.6963L47.106 30.708ZM44.9971 18.5053L48.3421 21.8503L44.9971 25.1954L41.652 21.8503L44.9971 18.5053ZM33.0053 30.4971L36.3503 27.152L39.6954 30.4971L36.3503 33.8421L33.0053 30.4971ZM44.9971 42.4889L41.652 39.1438L44.9971 35.7988L48.3421 39.1438L44.9971 42.4889ZM56.9889 30.4971L53.6438 33.8421L50.2988 30.4971L53.6438 27.152L56.9889 30.4971Z" fill="#D5C6C6"/>
<path d="M62.5568 42V18.7273H65.9545V27.375H66.1591C66.3561 27.0114 66.6402 26.5909 67.0114 26.1136C67.3826 25.6364 67.8977 25.2197 68.5568 24.8636C69.2159 24.5 70.0871 24.3182 71.1705 24.3182C72.5795 24.3182 73.8371 24.6742 74.9432 25.3864C76.0492 26.0985 76.9167 27.125 77.5455 28.4659C78.1818 29.8068 78.5 31.4205 78.5 33.3068C78.5 35.1932 78.1856 36.8106 77.5568 38.1591C76.928 39.5 76.0644 40.5341 74.9659 41.2614C73.8674 41.9811 72.6136 42.3409 71.2045 42.3409C70.1439 42.3409 69.2765 42.1629 68.6023 41.8068C67.9356 41.4508 67.4129 41.0341 67.0341 40.5568C66.6553 40.0795 66.3636 39.6553 66.1591 39.2841H65.875V42H62.5568ZM65.8864 33.2727C65.8864 34.5 66.0644 35.5758 66.4205 36.5C66.7765 37.4242 67.2917 38.1477 67.9659 38.6705C68.6402 39.1856 69.4659 39.4432 70.4432 39.4432C71.4583 39.4432 72.3068 39.1742 72.9886 38.6364C73.6705 38.0909 74.1856 37.3523 74.5341 36.4205C74.8902 35.4886 75.0682 34.4394 75.0682 33.2727C75.0682 32.1212 74.8939 31.0871 74.5455 30.1705C74.2045 29.2538 73.6894 28.5303 73 28C72.3182 27.4697 71.4659 27.2045 70.4432 27.2045C69.4583 27.2045 68.625 27.4583 67.9432 27.9659C67.2689 28.4735 66.7576 29.1818 66.4091 30.0909C66.0606 31 65.8864 32.0606 65.8864 33.2727Z" fill="white"/>
<path d="M11.7131 73V59.9091H14.1591V62.0398H14.321C14.5938 61.3182 15.0398 60.7557 15.6591 60.3523C16.2784 59.9432 17.0199 59.7386 17.8835 59.7386C18.7585 59.7386 19.4915 59.9432 20.0824 60.3523C20.679 60.7614 21.1193 61.3239 21.4034 62.0398H21.5398C21.8523 61.3409 22.3494 60.7841 23.0312 60.3693C23.7131 59.9489 24.5256 59.7386 25.4688 59.7386C26.6562 59.7386 27.625 60.1108 28.375 60.8551C29.1307 61.5994 29.5085 62.7216 29.5085 64.2216V73H26.9602V64.4602C26.9602 63.5739 26.7188 62.9318 26.2358 62.5341C25.7528 62.1364 25.1761 61.9375 24.5057 61.9375C23.6761 61.9375 23.0312 62.1932 22.571 62.7045C22.1108 63.2102 21.8807 63.8608 21.8807 64.6562V73H19.3409V64.2983C19.3409 63.5881 19.1193 63.017 18.6761 62.5852C18.233 62.1534 17.6563 61.9375 16.946 61.9375C16.4631 61.9375 16.017 62.0653 15.608 62.321C15.2045 62.571 14.8778 62.9205 14.6278 63.3693C14.3835 63.8182 14.2614 64.3381 14.2614 64.929V73H11.7131ZM38.5661 73.2642C37.2763 73.2642 36.1655 72.9886 35.2337 72.4375C34.3075 71.8807 33.5916 71.0994 33.0859 70.0938C32.5859 69.0824 32.3359 67.8977 32.3359 66.5398C32.3359 65.1989 32.5859 64.017 33.0859 62.9943C33.5916 61.9716 34.2962 61.1733 35.1996 60.5994C36.1087 60.0256 37.1712 59.7386 38.3871 59.7386C39.1257 59.7386 39.8416 59.8608 40.5348 60.1051C41.228 60.3494 41.8501 60.733 42.4013 61.2557C42.9524 61.7784 43.3871 62.4574 43.7053 63.2926C44.0234 64.1222 44.1825 65.1307 44.1825 66.3182V67.2216H33.7763V65.3125H41.6854C41.6854 64.642 41.549 64.0483 41.2763 63.5312C41.0036 63.0085 40.62 62.5966 40.1257 62.2955C39.6371 61.9943 39.0632 61.8438 38.4041 61.8438C37.6882 61.8438 37.0632 62.0199 36.5291 62.3722C36.0007 62.7187 35.5916 63.1733 35.3018 63.7358C35.0178 64.2926 34.8757 64.8977 34.8757 65.5511V67.0426C34.8757 67.9176 35.0291 68.6619 35.3359 69.2756C35.6484 69.8892 36.0831 70.358 36.6399 70.6818C37.1967 71 37.8473 71.1591 38.5916 71.1591C39.0746 71.1591 39.5149 71.0909 39.9126 70.9545C40.3104 70.8125 40.6541 70.6023 40.9439 70.3239C41.2337 70.0455 41.4553 69.7017 41.6087 69.2926L44.0206 69.7273C43.8274 70.4375 43.4808 71.0597 42.9808 71.5938C42.4865 72.1222 41.8643 72.5341 41.1143 72.8295C40.37 73.1193 39.5206 73.2642 38.5661 73.2642ZM51.9105 73.2557C50.8537 73.2557 49.9105 72.9858 49.081 72.446C48.2571 71.9006 47.6094 71.125 47.1378 70.1193C46.6719 69.108 46.4389 67.8949 46.4389 66.4801C46.4389 65.0653 46.6747 63.8551 47.1463 62.8494C47.6236 61.8437 48.277 61.0739 49.1065 60.5398C49.9361 60.0057 50.8764 59.7386 51.9276 59.7386C52.7401 59.7386 53.3935 59.875 53.8878 60.1477C54.3878 60.4148 54.7741 60.7273 55.0469 61.0852C55.3253 61.4432 55.5412 61.7585 55.6946 62.0312H55.848V55.5455H58.3963V73H55.9077V70.9631H55.6946C55.5412 71.2415 55.3196 71.5597 55.0298 71.9176C54.7457 72.2756 54.3537 72.5881 53.8537 72.8551C53.3537 73.1222 52.706 73.2557 51.9105 73.2557ZM52.473 71.0824C53.206 71.0824 53.8253 70.8892 54.331 70.5028C54.8423 70.1108 55.2287 69.5682 55.4901 68.875C55.7571 68.1818 55.8906 67.375 55.8906 66.4545C55.8906 65.5455 55.7599 64.75 55.4986 64.0682C55.2372 63.3864 54.8537 62.8551 54.348 62.4744C53.8423 62.0937 53.2173 61.9034 52.473 61.9034C51.706 61.9034 51.0668 62.1023 50.5554 62.5C50.044 62.8977 49.6577 63.4403 49.3963 64.1278C49.1406 64.8153 49.0128 65.5909 49.0128 66.4545C49.0128 67.3295 49.1435 68.1165 49.4048 68.8153C49.6662 69.5142 50.0526 70.0682 50.5639 70.4773C51.081 70.8807 51.7173 71.0824 52.473 71.0824ZM62.0334 73V59.9091H64.5817V73H62.0334ZM63.3203 57.8892C62.8771 57.8892 62.4964 57.7415 62.1783 57.446C61.8658 57.1449 61.7095 56.7869 61.7095 56.3722C61.7095 55.9517 61.8658 55.5937 62.1783 55.2983C62.4964 54.9972 62.8771 54.8466 63.3203 54.8466C63.7635 54.8466 64.1413 54.9972 64.4538 55.2983C64.772 55.5937 64.9311 55.9517 64.9311 56.3722C64.9311 56.7869 64.772 57.1449 64.4538 57.446C64.1413 57.7415 63.7635 57.8892 63.3203 57.8892ZM71.8196 73.2898C70.9901 73.2898 70.2401 73.1364 69.5696 72.8295C68.8991 72.517 68.3679 72.0653 67.9759 71.4744C67.5895 70.8835 67.3963 70.1591 67.3963 69.3011C67.3963 68.5625 67.5384 67.9545 67.8224 67.4773C68.1065 67 68.4901 66.6222 68.973 66.3438C69.456 66.0653 69.9957 65.8551 70.5923 65.7131C71.1889 65.571 71.7969 65.4631 72.4162 65.3892C73.2003 65.2983 73.8366 65.2244 74.3253 65.1676C74.8139 65.1051 75.169 65.0057 75.3906 64.8693C75.6122 64.733 75.723 64.5114 75.723 64.2045V64.1449C75.723 63.4006 75.5128 62.8239 75.0923 62.4148C74.6776 62.0057 74.0582 61.8011 73.2344 61.8011C72.3764 61.8011 71.7003 61.9915 71.206 62.3722C70.7173 62.7472 70.3793 63.1648 70.1918 63.625L67.7969 63.0795C68.081 62.2841 68.4957 61.642 69.0412 61.1534C69.5923 60.6591 70.2259 60.3011 70.9418 60.0795C71.6577 59.8523 72.4105 59.7386 73.2003 59.7386C73.723 59.7386 74.277 59.8011 74.8622 59.9261C75.4531 60.0455 76.0043 60.267 76.5156 60.5909C77.0327 60.9148 77.456 61.3778 77.7855 61.9801C78.1151 62.5767 78.2798 63.3523 78.2798 64.3068V73H75.7912V71.2102H75.6889C75.5241 71.5398 75.277 71.8636 74.9474 72.1818C74.6179 72.5 74.1946 72.7642 73.6776 72.9744C73.1605 73.1847 72.5412 73.2898 71.8196 73.2898ZM72.3736 71.2443C73.0781 71.2443 73.6804 71.1051 74.1804 70.8267C74.6861 70.5483 75.0696 70.1847 75.331 69.7358C75.598 69.2812 75.7315 68.7955 75.7315 68.2784V66.5909C75.6406 66.6818 75.4645 66.767 75.2031 66.8466C74.9474 66.9205 74.6548 66.9858 74.3253 67.0426C73.9957 67.0937 73.6747 67.142 73.3622 67.1875C73.0497 67.2273 72.7884 67.2614 72.5781 67.2898C72.0838 67.3523 71.6321 67.4574 71.223 67.6051C70.8196 67.7528 70.4957 67.9659 70.2514 68.2443C70.0128 68.517 69.8935 68.8807 69.8935 69.3352C69.8935 69.9659 70.1264 70.4432 70.5923 70.767C71.0582 71.0852 71.652 71.2443 72.3736 71.2443Z" fill="white"/>
</svg>
